<svg id="visual" viewBox="0 0 900 600" width="900" height="600" xmlns="http://www.w3.org/2000/svg" xmlns:xlink="http://www.w3.org/1999/xlink" version="1.1"><rect x="0" y="0" width="900" height="600" fill="#001220"></rect><defs><linearGradient id="grad1_0" x1="33.3%" y1="0%" x2="100%" y2="100%"><stop offset="20%" stop-color="#001220" stop-opacity="1"></stop><stop offset="80%" stop-color="#001220" stop-opacity="1"></stop></linearGradient></defs><defs><linearGradient id="grad2_0" x1="0%" y1="0%" x2="66.7%" y2="100%"><stop offset="20%" stop-color="#001220" stop-opacity="1"></stop><stop offset="80%" stop-color="#001220" stop-opacity="1"></stop></linearGradient></defs><g transform="translate(900, 0)"><path d="M0 486.7C-59.6 470.8 -119.1 454.9 -179.9 434.2C-240.6 413.6 -302.5 388.2 -344.2 344.2C-385.9 300.2 -407.4 237.6 -427.8 177.2C-448.1 116.7 -467.4 58.4 -486.7 0L0 0Z" fill="#FBAE3C"></path></g><g transform="translate(0, 600)"><path d="M0 -486.7C63.5 -477.2 127 -467.6 183.7 -443.5C240.4 -419.3 290.4 -380.6 336.6 -336.6C382.8 -292.6 425.3 -243.3 449.7 -186.3C474.1 -129.3 480.4 -64.6 486.7 0L0 0Z" fill="#FBAE3C"></path></g></svg>